<?xml version="1.0" standalone="no"?>
<!DOCTYPE svg PUBLIC "-//W3C//DTD SVG 20010904//EN"
 "http://www.w3.org/TR/2001/REC-SVG-20010904/DTD/svg10.dtd">
<svg version="1.0" xmlns="http://www.w3.org/2000/svg"
 width="600.000000pt" height="600.000000pt" viewBox="0 0 600.000000 600.000000"
 preserveAspectRatio="xMidYMid meet">
<metadata>
Created by potrace 1.11, written by Peter Selinger 2001-2013
</metadata>
<g transform="translate(0.000000,600.000000) scale(0.100000,-0.100000)"
fill="#000000" stroke="none">
<path d="M4080 5993 c-25 -2 -52 -6 -60 -10 -14 -5 -58 -12 -102 -16 -10 -1
-18 -5 -18 -9 0 -4 -9 -5 -20 -3 -11 2 -20 0 -20 -4 0 -4 -6 -8 -14 -8 -24 0
-146 -38 -146 -45 0 -4 -7 -5 -15 -2 -8 4 -15 2 -15 -3 0 -5 -6 -10 -12 -10
-21 -2 -82 -27 -90 -38 -4 -5 -8 -6 -8 -2 0 5 -25 -5 -55 -22 -30 -17 -55 -28
-55 -24 0 3 -10 -3 -22 -14 -13 -11 -45 -33 -73 -48 -27 -15 -52 -30 -55 -34
-3 -4 -30 -24 -60 -46 -30 -22 -57 -42 -60 -45 -3 -3 -24 -22 -47 -42 -23 -20
-39 -39 -35 -42 3 -3 0 -6 -7 -6 -7 0 -33 -23 -59 -52 -26 -28 -57 -62 -69
-75 -12 -13 -20 -23 -17 -23 3 0 -2 -7 -11 -17 -29 -29 -97 -124 -99 -140 -1
-8 -7 -18 -12 -21 -6 -4 -36 -53 -67 -110 -32 -56 -63 -113 -70 -125 -6 -12
-14 -24 -17 -27 -8 -7 -82 -150 -78 -151 7 -2 55 -9 83 -13 17 -2 30 -5 30 -6
0 -1 7 -3 16 -5 74 -14 173 -40 237 -61 42 -15 82 -27 87 -28 6 -1 26 -9 45
-17 19 -9 51 -23 70 -31 l35 -15 42 75 c24 41 43 78 43 83 0 5 5 9 10 9 6 0
10 5 10 11 0 6 20 42 45 80 25 38 45 72 45 75 0 19 227 244 247 244 7 0 13 5
13 10 0 6 4 10 10 10 5 0 34 16 64 35 30 19 59 35 64 35 4 0 31 11 58 24 53
26 134 51 189 60 11 2 20 4 20 6 0 14 287 20 365 8 36 -6 73 -11 83 -11 9 -1
17 -5 17 -10 0 -4 6 -7 13 -6 15 3 68 -11 82 -21 6 -4 21 -11 35 -15 52 -16
184 -84 225 -117 6 -5 31 -25 58 -45 26 -19 47 -40 47 -44 0 -5 7 -9 15 -9 8
0 15 -3 15 -7 0 -5 26 -35 56 -68 31 -33 63 -73 71 -90 9 -16 19 -32 22 -35
18 -15 93 -165 94 -187 0 -7 3 -13 6 -13 6 0 25 -56 37 -110 28 -127 32 -167
30 -290 -3 -126 -6 -154 -21 -220 -3 -14 -8 -36 -11 -50 -3 -14 -9 -27 -15
-28 -5 -2 -7 -7 -4 -12 3 -5 0 -21 -7 -37 -6 -15 -12 -30 -13 -33 -5 -24 -60
-130 -66 -130 -5 0 -6 -8 -2 -17 3 -10 3 -15 -1 -11 -5 4 -22 -20 -38 -53 -16
-32 -33 -59 -37 -59 -4 0 -8 -6 -8 -13 0 -6 -12 -31 -26 -54 -15 -24 -27 -45
-27 -47 0 -10 -93 -161 -101 -164 -5 -2 -6 -8 -3 -13 3 -6 -1 -18 -9 -27 -8
-9 -28 -41 -43 -70 -16 -30 -39 -70 -51 -90 -12 -20 -27 -49 -34 -64 -6 -16
-15 -28 -21 -28 -5 0 -6 -5 -3 -10 3 -6 -1 -13 -9 -16 -9 -3 -14 -10 -11 -14
3 -5 -2 -16 -11 -24 -8 -9 -13 -16 -9 -16 3 0 -2 -12 -12 -27 -11 -16 -50 -83
-88 -150 -38 -68 -72 -123 -77 -123 -4 0 -8 -6 -8 -12 0 -7 -14 -28 -31 -45
-16 -18 -28 -33 -26 -33 12 0 -109 -114 -168 -159 -132 -102 -275 -167 -431
-196 -11 -2 -19 -4 -19 -5 0 -4 -189 -22 -220 -22 -44 1 -180 17 -180 22 0 1
-13 4 -30 6 -16 3 -44 9 -61 15 -17 5 -40 11 -52 14 -11 2 -34 11 -51 19 -16
9 -36 16 -44 16 -8 0 -20 7 -27 15 -7 8 -21 15 -31 15 -11 0 -19 4 -19 8 0 5
-18 17 -40 27 -22 10 -40 22 -40 27 0 4 -6 8 -13 8 -7 0 -28 14 -47 31 -127
113 -160 145 -160 157 0 6 -4 12 -8 12 -10 0 -92 115 -92 130 0 5 -5 10 -11
10 -5 0 -7 5 -4 10 3 6 1 10 -6 10 -7 0 -10 3 -6 6 3 4 -1 13 -9 21 -8 9 -18
28 -21 44 -3 16 -9 29 -14 29 -5 0 -8 3 -8 8 1 4 0 10 -1 15 -1 4 -3 10 -5 15
-1 4 -5 16 -9 27 -19 49 -27 78 -42 150 -6 28 -19 144 -23 210 -2 18 -152 71
-165 57 -3 -3 -6 -1 -6 4 0 16 -132 23 -230 11 -58 -6 -73 -9 -105 -21 -11 -5
-33 -13 -50 -19 -53 -18 -62 -32 -60 -90 1 -30 5 -59 9 -65 4 -7 1 -12 -6 -12
-8 0 -9 -3 -3 -8 6 -4 10 -14 10 -22 -2 -62 57 -342 77 -367 6 -7 7 -13 3 -13
-4 0 -3 -6 3 -12 6 -7 11 -17 12 -23 5 -23 12 -42 26 -67 8 -16 13 -28 10 -28
-8 0 92 -187 133 -250 61 -92 104 -150 113 -150 4 0 8 -6 8 -12 0 -14 173
-186 229 -228 18 -14 39 -31 46 -38 8 -6 18 -12 23 -12 6 0 12 -4 14 -9 4 -11
139 -97 166 -105 12 -4 22 -12 22 -17 0 -5 6 -9 13 -9 7 0 38 -13 70 -30 31
-16 57 -27 57 -24 0 3 12 -2 28 -10 15 -9 64 -27 109 -41 71 -23 96 -29 148
-39 6 -1 15 -5 21 -9 6 -3 31 -9 55 -11 24 -3 76 -10 114 -15 108 -14 353 -6
455 15 19 3 45 7 58 7 12 1 22 4 22 8 0 4 11 6 25 4 14 -1 25 2 25 6 0 5 10 9
22 9 21 0 60 11 123 34 17 6 33 10 38 8 4 -1 7 2 7 6 0 4 10 8 22 9 11 1 25 8
29 15 5 7 9 10 9 5 0 -4 40 13 90 38 49 25 93 45 96 44 4 0 10 3 13 8 9 13 89
63 101 63 5 0 10 4 10 9 0 5 15 18 33 28 32 20 78 57 123 100 13 13 27 23 31
24 4 0 28 25 53 54 25 29 51 54 58 54 7 1 11 5 8 10 -3 5 2 15 11 22 9 8 38
43 64 79 27 36 52 70 57 75 5 6 21 33 37 60 16 28 33 53 38 56 5 3 7 8 6 10
-3 4 123 231 160 289 8 14 16 27 16 30 0 3 8 16 17 30 9 14 19 35 23 48 3 12
11 22 16 22 5 0 9 7 9 15 0 8 5 15 11 15 5 0 7 5 4 10 -3 6 -3 10 2 10 4 0 14
14 22 31 7 16 41 78 75 137 70 120 122 212 144 257 9 17 19 32 22 35 4 3 10
15 14 28 4 12 12 22 17 22 5 0 9 8 9 19 0 10 7 24 15 31 8 7 15 21 15 31 0 11
4 19 9 19 9 0 37 70 32 79 -2 2 1 7 6 10 7 5 43 86 49 111 0 3 3 12 6 20 37
96 78 297 81 392 1 27 6 48 10 48 4 0 3 9 -3 20 -6 11 -7 20 -2 20 12 0 9 43
-3 52 -6 5 -5 8 3 8 7 0 11 4 8 8 -3 5 -7 44 -10 88 -5 74 -10 117 -21 189 -6
42 -34 167 -42 185 -7 17 -6 14 -21 65 -14 48 -57 153 -66 162 -3 3 -6 14 -6
24 0 9 -4 19 -8 21 -4 2 -23 33 -42 71 -18 37 -37 67 -42 67 -4 0 -7 3 -6 8 3
11 -64 112 -73 112 -5 0 -9 4 -9 10 0 33 -253 287 -354 355 -16 11 -39 27 -51
35 -13 8 -41 26 -64 39 -22 14 -41 28 -41 33 0 4 -7 5 -15 2 -8 -4 -15 -1 -15
4 0 10 -40 28 -49 23 -2 -2 -7 1 -10 6 -12 18 -206 97 -264 108 -21 4 -40 11
-42 16 -3 4 -12 6 -20 2 -8 -3 -15 0 -15 6 0 6 -7 8 -15 5 -8 -4 -21 -2 -28 4
-6 5 -22 8 -34 7 -13 -1 -23 1 -23 5 0 3 -10 6 -22 6 -13 1 -39 4 -58 8 -38 8
-336 14 -410 9z"/>
<path d="M2190 4404 c0 -6 -17 -10 -40 -10 -22 1 -40 -2 -40 -5 0 -4 -8 -6
-17 -5 -10 2 -33 -1 -53 -5 -19 -4 -50 -11 -69 -14 -19 -3 -37 -8 -41 -10 -3
-2 -17 -6 -31 -9 -53 -11 -68 -15 -110 -29 -138 -47 -352 -147 -379 -176 -3
-3 -21 -15 -40 -25 -19 -11 -40 -25 -46 -30 -7 -6 -35 -29 -64 -51 -94 -72
-260 -243 -297 -306 -10 -16 -21 -29 -25 -29 -5 0 -16 -16 -25 -35 -9 -19 -20
-35 -24 -35 -4 0 -9 -8 -12 -17 -4 -10 -18 -36 -32 -58 -14 -22 -28 -48 -31
-57 -4 -10 -11 -18 -17 -18 -6 0 -7 -3 -4 -6 4 -4 -2 -19 -12 -33 -10 -14 -35
-59 -56 -98 -21 -40 -42 -73 -47 -73 -4 0 -8 -9 -8 -19 0 -11 -4 -22 -9 -25
-5 -3 -21 -29 -36 -58 -15 -29 -32 -56 -37 -59 -5 -3 -10 -10 -9 -15 0 -5 -9
-25 -21 -44 -11 -19 -20 -37 -20 -40 0 -3 -5 -12 -11 -20 -11 -13 -26 -40 -61
-105 -6 -11 -13 -22 -16 -25 -3 -3 -15 -23 -27 -45 -11 -22 -30 -56 -42 -75
-12 -19 -26 -47 -32 -62 -6 -16 -15 -28 -20 -28 -5 0 -9 -6 -9 -13 0 -7 -14
-35 -30 -61 -17 -26 -32 -53 -33 -59 -1 -7 -5 -14 -8 -17 -9 -8 -99 -199 -102
-218 -2 -9 -9 -27 -15 -39 -7 -13 -10 -23 -7 -23 3 0 1 -8 -4 -18 -6 -11 -12
-30 -15 -43 -3 -13 -9 -39 -15 -57 -5 -18 -10 -35 -10 -37 -1 -3 -1 -6 -2 -7
0 -2 -3 -16 -5 -33 -8 -47 -12 -70 -14 -70 -10 0 -21 -422 -12 -439 3 -5 6
-23 8 -40 1 -17 5 -47 9 -66 4 -19 8 -44 10 -55 2 -11 4 -20 5 -20 2 0 4 -9 6
-20 1 -11 5 -31 9 -45 3 -14 8 -36 11 -49 3 -13 10 -33 15 -43 6 -11 13 -32
15 -46 3 -15 10 -32 16 -39 6 -7 8 -13 4 -13 -4 0 0 -10 8 -23 8 -12 15 -26
15 -30 0 -8 38 -93 52 -117 5 -8 12 -23 15 -32 4 -10 10 -18 15 -18 5 0 9 -9
9 -20 0 -11 4 -20 8 -20 5 0 16 -16 25 -35 9 -19 22 -35 27 -35 6 0 9 -4 5 -9
-3 -5 -1 -13 5 -16 6 -4 22 -24 35 -45 13 -21 36 -50 50 -64 14 -14 25 -28 25
-31 0 -7 168 -175 176 -175 3 0 16 -12 29 -26 14 -15 25 -24 25 -20 0 4 10 -3
22 -15 23 -21 112 -82 158 -107 59 -33 160 -82 163 -80 2 2 14 -4 27 -13 36
-23 200 -80 211 -74 5 4 9 2 9 -2 0 -7 50 -22 140 -40 32 -7 77 -14 125 -20
60 -7 354 -7 410 0 84 10 131 19 155 28 14 4 36 10 50 13 14 2 45 11 69 19 25
9 48 14 53 11 4 -3 8 -1 8 3 0 5 21 15 47 22 53 16 246 110 251 123 2 4 10 8
18 8 8 0 14 5 14 11 0 5 4 8 9 5 5 -3 14 1 21 9 7 8 16 15 21 15 5 0 20 9 33
21 13 12 27 21 30 20 3 -1 14 7 25 17 10 9 41 35 67 57 61 49 204 195 204 207
0 5 5 6 10 3 6 -3 10 4 10 16 0 12 3 19 7 16 3 -4 31 28 60 71 48 68 84 127
171 282 14 25 44 79 68 121 52 91 56 117 17 115 -16 -1 -39 2 -52 7 -13 4 -40
10 -60 13 -20 3 -40 9 -45 14 -5 5 -14 6 -21 4 -14 -6 -270 77 -318 103 -18 9
-38 16 -44 15 -7 -2 -13 3 -13 9 0 7 -8 4 -17 -7 -27 -30 -53 -80 -46 -88 3
-3 2 -6 -4 -6 -5 0 -18 -18 -28 -40 -10 -22 -22 -40 -27 -40 -4 0 -8 -6 -8
-12 0 -28 -110 -178 -190 -259 -47 -48 -121 -110 -164 -138 -83 -54 -190 -108
-222 -114 -11 -2 -28 -8 -39 -14 -43 -24 -184 -46 -310 -49 -121 -3 -145 -1
-304 32 -13 3 -32 9 -41 14 -10 5 -20 6 -24 3 -3 -3 -6 -1 -6 5 0 6 -9 9 -20
7 -11 -2 -20 -1 -20 3 0 4 -21 16 -48 26 -56 24 -185 100 -202 121 -7 8 -19
15 -27 15 -8 0 -11 5 -8 10 3 6 1 10 -5 10 -7 0 -41 29 -78 65 -36 36 -62 65
-57 65 4 0 -4 9 -19 21 -14 11 -26 27 -26 35 0 8 -4 14 -8 14 -5 0 -15 12 -23
28 -8 15 -17 29 -20 32 -14 11 -58 104 -53 112 3 4 1 8 -4 8 -5 0 -19 28 -31
63 -12 34 -25 69 -28 77 -3 8 -7 22 -8 30 -1 8 -8 37 -14 63 -6 27 -9 53 -6
58 4 5 2 9 -2 9 -5 0 -9 26 -11 57 -1 32 -3 63 -3 68 0 6 2 48 6 95 3 47 7 95
8 108 0 12 4 22 8 22 3 0 5 11 4 25 -2 14 1 25 6 25 5 0 9 8 9 17 0 32 44 152
53 146 6 -3 7 -2 4 4 -3 5 0 21 8 36 8 15 11 27 7 27 -4 0 -2 4 4 8 6 4 26 34
44 67 18 33 44 80 59 105 38 66 53 92 85 152 16 29 33 55 37 56 5 2 7 7 4 12
-3 4 2 13 10 20 8 7 15 19 15 26 0 8 5 14 10 14 6 0 9 3 8 8 -3 8 112 214 125
223 4 3 9 12 11 20 1 8 15 36 31 64 17 27 38 63 48 80 10 16 20 38 23 48 4 9
11 17 16 17 5 0 7 4 4 9 -3 5 1 14 9 21 8 7 15 18 15 26 0 7 6 19 13 26 6 7
19 27 27 43 8 17 19 33 25 37 5 4 6 8 2 8 -18 0 139 191 197 239 10 9 27 24
38 34 10 9 22 17 27 17 5 0 11 4 13 9 7 19 192 120 268 146 3 1 13 5 24 10 10
4 31 8 46 9 15 1 26 4 24 7 -2 4 18 10 44 15 26 4 54 9 62 11 8 2 43 5 77 7
34 2 66 7 72 10 5 4 12 2 16 -4 4 -7 12 -7 26 0 11 7 19 7 19 1 0 -11 19 -9
38 3 7 4 18 3 25 -2 7 -5 32 -12 57 -15 49 -7 61 -9 135 -28 28 -7 52 -16 55
-20 3 -5 15 -10 25 -12 30 -4 165 -70 165 -80 0 -4 5 -5 10 -2 6 3 10 2 10 -3
0 -4 18 -18 40 -31 22 -12 40 -27 40 -33 0 -6 3 -9 6 -5 12 12 204 -178 204
-202 0 -5 6 -14 13 -18 6 -4 19 -21 27 -38 8 -16 18 -32 21 -35 30 -24 123
-256 130 -326 2 -16 6 -33 10 -39 3 -5 5 -20 4 -32 -1 -13 3 -23 8 -23 5 0 4
-7 -3 -15 -7 -8 -8 -15 -2 -15 5 0 9 -15 9 -32 0 -73 2 -77 42 -97 21 -11 41
-17 45 -14 3 4 6 0 6 -7 0 -7 3 -11 6 -8 3 4 20 2 37 -4 58 -17 91 -21 177
-21 85 -1 210 20 210 35 0 4 7 5 15 2 8 -4 15 -1 15 7 0 7 3 9 7 6 3 -4 12 -2
20 4 7 6 13 8 13 5 0 -4 6 -1 14 6 10 10 12 35 9 93 -3 44 -5 95 -6 113 -1 17
-4 32 -7 32 -3 0 -6 19 -8 43 -2 40 -8 79 -12 85 -3 2 -3 2 -15 57 -12 57 -11
53 -40 135 -15 41 -27 81 -27 88 -1 6 -5 12 -10 12 -4 0 -8 7 -8 15 0 19 -42
105 -52 105 -4 0 -5 7 -2 15 4 8 2 15 -4 15 -5 0 -16 15 -23 33 -12 28 -44 82
-66 112 -5 6 -21 30 -38 55 -35 53 -56 78 -150 178 -81 86 -73 78 -150 140
-96 77 -240 172 -262 172 -7 0 -13 5 -13 10 0 6 -6 10 -14 10 -7 0 -33 11 -57
24 -54 31 -209 88 -209 78 0 -4 -4 -2 -8 5 -4 6 -20 13 -37 16 -31 6 -98 24
-125 33 -14 6 -73 13 -132 17 -16 1 -28 4 -28 7 0 3 -21 5 -46 5 -25 -1 -48 3
-51 8 -2 4 -10 4 -17 -2 -7 -6 -18 -6 -26 -1 -7 4 -24 4 -37 -1 -15 -5 -23 -5
-23 2 0 6 -6 7 -12 2 -19 -11 -72 -10 -80 2 -5 6 -8 6 -8 -1z"/>
</g>
</svg>
